<svg width="49" height="46" viewBox="0 0 49 46" fill="none" xmlns="http://www.w3.org/2000/svg">
<path d="M46.7956 10.3451H38.0956V5.46645C38.0956 5.46645 34.533 1.80953 43.083 1.80957C46.465 1.80958 46.7139 4.24669 46.7956 5.46645V10.3451Z" fill="white" stroke="#25398F" stroke-width="3"/>
<path d="M43.164 1.67969H33.0938C33.582 6.32883 34.6153 15.75 34.8422 16.2417C35.1259 16.8564 37.7735 16.8091 38.0099 16.8091C38.2463 16.8091 38.4827 10.6155 38.7191 10.3791C38.9082 10.19 38.7979 6.04515 38.7191 3.99638L43.164 1.67969Z" fill="white"/>
<path d="M16.2812 8.22949H34.0065" stroke="#25398F" stroke-width="3"/>
<path d="M16.2812 13.4238H34.0065" stroke="#25398F" stroke-width="3"/>
<path d="M16.2812 18.6182H34.0065" stroke="#25398F" stroke-width="3"/>
<path d="M16.2812 23.8115H34.0065" stroke="#25398F" stroke-width="3"/>
<path d="M22.8821 28.8324H20.9789M18.709 33.7391H20.9789M20.9789 28.8324H20.0389C19.5956 28.8629 18.709 29.135 18.709 29.9788C18.709 30.8226 19.5956 31.1252 20.0389 31.1711H22.1712C22.584 31.2399 23.4094 31.5976 23.4094 32.4781C23.4094 33.3585 22.584 33.6856 22.1712 33.7391H20.9789M20.9789 28.8324V27.2178M20.9789 33.7391V35.262" stroke="#258F41" stroke-width="2"/>
<path d="M29.8782 28.8324H27.975M25.7051 33.7391H27.975M27.975 28.8324H27.035C26.5917 28.8629 25.7051 29.135 25.7051 29.9788C25.7051 30.8226 26.5917 31.1252 27.035 31.1711H29.1673C29.5801 31.2399 30.4055 31.5976 30.4055 32.4781C30.4055 33.3585 29.5801 33.6856 29.1673 33.7391H27.975M27.975 28.8324V27.2178M27.975 33.7391V35.262" stroke="#258F41" stroke-width="2"/>
<path d="M38.7219 19.2694C38.7219 14.094 38.7219 9.00186 38.7219 5.22172C38.7219 3.10227 40.0572 1.80664 43.4389 1.80664H16.3619C14.4645 2.05058 10.6699 3.49792 10.6699 7.33581C10.6699 11.1737 10.6699 30.1842 10.6699 39.2098L28.2364 41.4865L32.8794 44.2511H35.6321C36.662 44.0885 38.7219 43.3079 38.7219 41.4865C38.7219 40.6545 38.7219 35.3794 38.7219 28.8142" stroke="#25398F" stroke-width="3"/>
<path d="M32.6398 39.3721H1.79492C1.79492 42.472 4.03068 43.9627 5.14856 44.3205H35.4437C32.4087 44.3205 32.3099 41.0216 32.6398 39.3721Z" fill="white" stroke="#25398F" stroke-width="3"/>
</svg>
