<svg width="22" height="20" viewBox="0 0 22 20" fill="none" xmlns="http://www.w3.org/2000/svg">
<path d="M10.8814 0C16.8911 0 21.7629 3.79711 21.7629 8.48235C21.7629 13.1665 16.8911 16.9637 10.8814 16.9637C10.283 16.964 9.68524 16.9259 9.09171 16.8497L4.52357 19.8374C4.00437 20.112 3.82094 20.082 4.03443 19.4094L4.95883 15.5978C1.9742 14.0847 0 11.4628 0 8.48235C0 3.79814 4.87178 0 10.8814 0ZM17.003 8.35281L18.5264 6.87707C18.6143 6.78578 18.6634 6.66394 18.6632 6.5372C18.6631 6.41047 18.6137 6.28874 18.5256 6.19767C18.4375 6.10659 18.3175 6.05327 18.1908 6.04893C18.0641 6.0446 17.9407 6.0896 17.8466 6.17444L15.8486 8.10823V6.51021C15.8486 6.38048 15.797 6.25607 15.7053 6.16434C15.6136 6.0726 15.4891 6.02107 15.3594 6.02107C15.2297 6.02107 15.1053 6.0726 15.0135 6.16434C14.9218 6.25607 14.8703 6.38048 14.8703 6.51021V9.1601C14.8519 9.2357 14.8519 9.31458 14.8703 9.39017V10.8814C14.8703 11.0112 14.9218 11.1356 15.0135 11.2273C15.1053 11.3191 15.2297 11.3706 15.3594 11.3706C15.4891 11.3706 15.6136 11.3191 15.7053 11.2273C15.797 11.1356 15.8486 11.0112 15.8486 10.8814V9.46893L16.2911 9.04093L17.771 11.1478C17.8079 11.2004 17.8549 11.2452 17.9091 11.2796C17.9634 11.3141 18.0239 11.3375 18.0872 11.3486C18.1505 11.3597 18.2154 11.3582 18.2782 11.3441C18.3409 11.3301 18.4003 11.3039 18.4529 11.267C18.5055 11.23 18.5503 11.1831 18.5847 11.1288C18.6192 11.0745 18.6426 11.014 18.6537 10.9507C18.6647 10.8874 18.6632 10.8225 18.6492 10.7598C18.6352 10.697 18.609 10.6377 18.572 10.5851L17.003 8.35177V8.35281ZM13.9376 10.3467H12.4245V6.52576C12.4187 6.40006 12.3647 6.28143 12.2737 6.19452C12.1827 6.10761 12.0617 6.05912 11.9359 6.05912C11.8101 6.05912 11.6891 6.10761 11.5981 6.19452C11.5071 6.28143 11.4531 6.40006 11.4473 6.52576V10.8358C11.4473 11.1053 11.6649 11.325 11.9354 11.325H13.9376C14.0673 11.325 14.1917 11.2735 14.2835 11.1817C14.3752 11.09 14.4267 10.9656 14.4267 10.8358C14.4267 10.7061 14.3752 10.5817 14.2835 10.49C14.1917 10.3982 14.0673 10.3467 13.9376 10.3467ZM7.8678 9.21503L8.58909 7.44602L9.25027 9.21503H7.8678ZM10.4825 9.72076L10.4845 9.70418C10.4843 9.58095 10.4372 9.46241 10.3529 9.37255L9.26892 6.47083C9.22348 6.33255 9.13692 6.21143 9.02081 6.12366C8.9047 6.03588 8.76457 5.98563 8.61914 5.97961C8.47265 5.97897 8.32943 6.02295 8.20854 6.1057C8.08765 6.18845 7.99483 6.30605 7.94242 6.44285L6.22108 10.6659C6.19679 10.7254 6.18444 10.789 6.18476 10.8533C6.18508 10.9175 6.19804 10.9811 6.22292 11.0403C6.24779 11.0995 6.28409 11.1533 6.32974 11.1985C6.37539 11.2437 6.4295 11.2795 6.48897 11.3038C6.54844 11.328 6.61212 11.3404 6.67636 11.3401C6.7406 11.3398 6.80415 11.3268 6.86338 11.3019C6.92261 11.277 6.97636 11.2407 7.02156 11.1951C7.06677 11.1494 7.10254 11.0953 7.12683 11.0359L7.46882 10.1933H9.61402L9.92388 11.0224C9.94495 11.0844 9.97824 11.1415 10.0218 11.1903C10.0653 11.2392 10.1182 11.2788 10.1774 11.3069C10.2365 11.335 10.3007 11.3508 10.3661 11.3536C10.4315 11.3565 10.4967 11.3461 10.5581 11.3232C10.6194 11.3003 10.6755 11.2654 10.7231 11.2204C10.7706 11.1754 10.8087 11.1214 10.835 11.0614C10.8612 11.0015 10.8752 10.9369 10.8761 10.8714C10.877 10.806 10.8647 10.741 10.84 10.6804L10.4825 9.72076ZM7.03978 6.53094C7.03978 6.40139 6.98839 6.27713 6.89688 6.18543C6.80537 6.09372 6.68122 6.04207 6.55167 6.04179H3.18878C3.05905 6.04179 2.93464 6.09333 2.8429 6.18506C2.75117 6.27679 2.69964 6.40121 2.69964 6.53094C2.69964 6.66067 2.75117 6.78509 2.8429 6.87682C2.93464 6.96855 3.05905 7.02009 3.18878 7.02009H4.39092V10.8918C4.39092 11.0215 4.44246 11.146 4.53419 11.2377C4.62592 11.3294 4.75034 11.381 4.88007 11.381C5.0098 11.381 5.13422 11.3294 5.22595 11.2377C5.31768 11.146 5.36922 11.0215 5.36922 10.8918V7.02009H6.55063C6.82111 7.02009 7.03978 6.80039 7.03978 6.53094Z" fill="white"/>
</svg>
