<svg width="46" height="58" viewBox="0 0 46 58" fill="none" xmlns="http://www.w3.org/2000/svg">
<rect x="1.73438" y="1.53906" width="23.6889" height="51.3089" rx="1.5" fill="white" stroke="#1F3A93" stroke-width="3"/>
<path d="M6.33789 14.7656V22.7656" stroke="#1F3A93" stroke-width="3"/>
<rect x="11.0098" y="35.4004" width="4.61461" height="4.61461" rx="2.30731" fill="white" stroke="#769B34" stroke-width="2"/>
<path d="M13.3171 34.8067V31.5332M13.3171 31.5332L10.7188 29.1035M13.3171 31.5332L15.9155 29.1035" stroke="#258F41" stroke-width="2"/>
<path d="M13.3171 40.5429V43.8164M13.3171 43.8164L10.7188 46.2461M13.3171 43.8164L15.9155 46.2461" stroke="#258F41" stroke-width="2"/>
<path d="M16.0768 36.4006L18.9118 34.7639M18.9118 34.7639L19.7168 31.2988M18.9118 34.7639L22.3152 35.7994" stroke="#258F41" stroke-width="2"/>
<path d="M11.1094 39.2687L8.2744 40.9055M8.2744 40.9055L4.87109 39.8701M8.2744 40.9055L7.46948 44.3707" stroke="#258F41" stroke-width="2"/>
<path d="M16.0508 39.3137L18.8858 40.9504M18.8858 40.9504L22.2891 39.915M18.8858 40.9504L19.6907 44.4156" stroke="#258F41" stroke-width="2"/>
<path d="M11.0833 36.4456L8.24834 34.8088M8.24834 34.8088L7.44336 31.3438M8.24834 34.8088L4.84497 35.8443" stroke="#258F41" stroke-width="2"/>
<rect x="11.0098" y="35.4004" width="4.61461" height="4.61461" rx="2.30731" fill="white" stroke="#258F41" stroke-width="2"/>
<rect x="20.0449" y="5.15039" width="23.6889" height="51.3089" rx="1.5" fill="white" stroke="#1F3A93" stroke-width="3"/>
<path d="M43.9023 25.6191L20.1934 25.6191" stroke="#1F3A93" stroke-width="3"/>
<path d="M31.0645 21.1006H24.0645" stroke="#1F3A93" stroke-width="3"/>
<rect x="29.3203" y="39.0117" width="4.61461" height="4.61461" rx="2.30731" fill="white" stroke="#769B34" stroke-width="2"/>
<path d="M31.6276 38.418V35.1445M31.6276 35.1445L29.0293 32.7148M31.6276 35.1445L34.2261 32.7148" stroke="#258F41" stroke-width="2"/>
<path d="M31.6276 44.1542V47.4278M31.6276 47.4278L29.0293 49.8574M31.6276 47.4278L34.2261 49.8574" stroke="#258F41" stroke-width="2"/>
<path d="M34.3874 40.012L37.2224 38.3752M37.2224 38.3752L38.0273 34.9102M37.2224 38.3752L40.6257 39.4107" stroke="#258F41" stroke-width="2"/>
<path d="M29.4199 42.881L26.585 44.5178M26.585 44.5178L23.1816 43.4824M26.585 44.5178L25.78 47.983" stroke="#258F41" stroke-width="2"/>
<path d="M34.3633 42.925L37.1983 44.5618M37.1983 44.5618L40.6016 43.5264M37.1983 44.5618L38.0032 48.0269" stroke="#258F41" stroke-width="2"/>
<path d="M29.3939 40.0569L26.5589 38.4201M26.5589 38.4201L25.7539 34.9551M26.5589 38.4201L23.1555 39.4556" stroke="#258F41" stroke-width="2"/>
<rect x="29.3203" y="39.0117" width="4.61461" height="4.61461" rx="2.30731" fill="white" stroke="#258F41" stroke-width="2"/>
</svg>
