<svg width="47" height="46" viewBox="0 0 47 46" fill="none" xmlns="http://www.w3.org/2000/svg">
<path d="M35.2725 1.96484C37.7577 1.96485 39.7725 3.97957 39.7725 6.46484V38.625H12.3008V1.96484H35.2725Z" fill="white" stroke="#25398F" stroke-width="3"/>
<path d="M16.377 28.5186H33.9927" stroke="#25398F" stroke-width="3"/>
<path d="M16.377 12.8467H33.9927" stroke="#25398F" stroke-width="3"/>
<path d="M16.377 18.0098H33.9927" stroke="#25398F" stroke-width="3"/>
<path d="M16.377 23.1719H33.9927" stroke="#25398F" stroke-width="3"/>
<path d="M32.6349 34.8955H1.98047C1.98047 37.9763 4.20242 39.4578 5.3134 39.8135H35.4214C32.4052 39.8135 32.307 36.5348 32.6349 34.8955Z" fill="white" stroke="#25398F" stroke-width="3"/>
<path d="M31.6854 6.90527H1.98047C1.98047 3.82443 4.1336 2.34295 5.21016 1.98731H35.2512C32.3285 1.98731 31.6854 5.8979 31.6854 6.90527Z" fill="white" stroke="#25398F" stroke-width="3"/>
<path d="M45.4814 26.3984V43.6299H28.4551V26.3984H45.4814ZM45.4814 16.8701V23.3984H28.4551V16.8701H45.4814Z" fill="white" stroke="#258F41" stroke-width="3"/>
<path d="M34.6348 24.8555V43.6455" stroke="#258F41" stroke-width="2"/>
<path d="M28.6035 32.4209H44.9199" stroke="#258F41" stroke-width="2"/>
</svg>
