<svg width="46" height="42" viewBox="0 0 46 42" fill="none" xmlns="http://www.w3.org/2000/svg">
<path d="M9.80273 11.1914H36.3809C37.2091 11.1916 37.8809 11.8631 37.8809 12.6914V34.0801H8.30273V12.6914C8.30274 11.863 8.97431 11.1914 9.80273 11.1914Z" fill="white" stroke="#25398F" stroke-width="3"/>
<path d="M10.8564 39.9766H35.3281C38.4714 39.9765 41.1015 37.7872 41.7812 34.8506H4.40332C5.0831 37.7872 7.71316 39.9766 10.8564 39.9766Z" fill="white" stroke="#25398F" stroke-width="3"/>
<path d="M16.043 34.1974C16.043 36.0327 17.5308 37.5205 19.3661 37.5205H26.8193C28.6546 37.5205 30.1424 36.0327 30.1424 34.1974H16.043Z" fill="#25398F"/>
<path d="M17.6768 16.915L15.4414 19.5811" stroke="#258F41" stroke-width="2"/>
<path d="M28.0488 16.915L30.5426 19.7533" stroke="#258F41" stroke-width="2"/>
<path d="M16.5 27.4932H29.227" stroke="#258F41" stroke-width="2"/>
<rect x="21.123" y="4.66016" width="3.45172" height="3.45182" rx="1.72586" fill="white" stroke="#258F41" stroke-width="1.5"/>
<rect x="18.4941" y="8.86426" width="8.90382" height="4.64311" rx="2.32155" fill="white" stroke="#258F41" stroke-width="1.5"/>
<rect x="16.9434" y="2.02148" width="11.6988" height="11.6991" rx="5.8494" stroke="#25398F" stroke-width="3"/>
<rect x="1.86914" y="17.5264" width="11.4303" height="11.4303" rx="5.71516" fill="white"/>
<rect x="3.2832" y="24.5693" width="8.90382" height="4.64311" rx="2.32155" fill="white" stroke="#258F41" stroke-width="1.5"/>
<rect x="1.73438" y="17.3916" width="11.6988" height="11.6991" rx="5.8494" stroke="#25398F" stroke-width="3"/>
<rect x="5.91406" y="20.0283" width="3.45172" height="3.45182" rx="1.72586" fill="white" stroke="#258F41" stroke-width="1.5"/>
<rect x="31.8691" y="17.5264" width="11.4303" height="11.4303" rx="5.71516" fill="white"/>
<rect x="33.5859" y="24.5693" width="8.90382" height="4.64311" rx="2.32155" fill="white" stroke="#258F41" stroke-width="1.5"/>
<rect x="32.0352" y="17.3916" width="11.6988" height="11.6991" rx="5.8494" stroke="#25398F" stroke-width="3"/>
<rect x="36.2148" y="20.0283" width="3.45172" height="3.45182" rx="1.72586" fill="white" stroke="#258F41" stroke-width="1.5"/>
</svg>
