<svg width="46" height="45" viewBox="0 0 46 45" fill="none" xmlns="http://www.w3.org/2000/svg">
<path d="M19.5798 20.2425H3.44141V8.09471L15.4132 1.75684L24.5094 4.80832L19.5798 10.0888L15.9707 9.12175L10.8945 14.198H19.5798C20.6109 14.198 22.3446 14.6678 22.3446 17.203C22.3446 19.7382 20.4406 20.2034 19.5798 20.2425Z" fill="white" stroke="#25398F" stroke-width="3"/>
<mask id="path-2-inside-1_606_421" fill="white">
<path d="M0.234375 4.73633H4.33093V22.9644H0.234375V4.73633Z"/>
</mask>
<path d="M0.234375 4.73633H4.33093V22.9644H0.234375V4.73633Z" fill="white"/>
<path d="M4.33093 4.73633H6.33093V2.73633H4.33093V4.73633ZM4.33093 22.9644V24.9644H6.33093V22.9644H4.33093ZM0.234375 4.73633V6.73633H4.33093V4.73633V2.73633H0.234375V4.73633ZM4.33093 4.73633H2.33093V22.9644H4.33093H6.33093V4.73633H4.33093ZM4.33093 22.9644V20.9644H0.234375V22.9644V24.9644H4.33093V22.9644Z" fill="#25398F" mask="url(#path-2-inside-1_606_421)"/>
<path d="M29.9103 29.9843L42.5277 27.5781V39.6475L29.1739 42.5543L12.6397 33.7401C12.2126 33.2713 11.552 31.9461 12.3272 30.3958C13.1023 28.8455 14.9213 28.8955 15.7339 29.1143L27.9027 34.2265C27.7862 34.0407 27.7 33.8508 27.6499 33.664C27.292 32.3284 27.7444 30.5647 29.9103 29.9843Z" fill="white"/>
<path d="M31.4946 35.7355C32.8672 35.3123 35.0157 34.8356 35.896 34.5618L31.4946 35.7355ZM31.4946 35.7355C31.4946 35.7355 30.6948 35.9743 29.6063 35.5921C28.5177 35.2099 27.9027 34.2265 27.9027 34.2265M31.4946 35.7355C30.1924 36.1369 28.5322 35.2305 27.9027 34.2265M27.9027 34.2265L15.7339 29.1143C14.9213 28.8955 13.1023 28.8455 12.3272 30.3958C11.552 31.9461 12.2126 33.2713 12.6397 33.7401L29.1739 42.5543L42.5277 39.6475V27.5781L29.9103 29.9843C27.7444 30.5647 27.292 32.3284 27.6499 33.664C27.7 33.8508 27.7862 34.0407 27.9027 34.2265Z" stroke="#25398F" stroke-width="3"/>
<mask id="path-6-inside-2_606_421" fill="white">
<path d="M45.2344 24.3262H41.1378V42.5543H45.2344V24.3262Z"/>
</mask>
<path d="M45.2344 24.3262H41.1378V42.5543H45.2344V24.3262Z" fill="white"/>
<path d="M41.1378 24.3262H39.1378V22.3262H41.1378V24.3262ZM41.1378 42.5543V44.5543H39.1378V42.5543H41.1378ZM45.2344 24.3262V26.3262H41.1378V24.3262V22.3262H45.2344V24.3262ZM41.1378 24.3262H43.1378V42.5543H41.1378H39.1378V24.3262H41.1378ZM41.1378 42.5543V40.5543H45.2344V42.5543V44.5543H41.1378V42.5543Z" fill="#25398F" mask="url(#path-6-inside-2_606_421)"/>
<rect x="20.8555" y="2.94531" width="19.7374" height="19.7374" rx="9.8687" fill="white" stroke="#25398F" stroke-width="3"/>
<path d="M33.925 8.58676H30.5825M26.5957 17.2046H30.5825M30.5825 8.58676H28.9314C28.1528 8.64043 26.5957 9.11826 26.5957 10.6002C26.5957 12.0822 28.1528 12.6137 28.9314 12.6943H32.6765C33.4014 12.8151 34.8511 13.4433 34.8511 14.9897C34.8511 16.5361 33.4014 17.1106 32.6765 17.2046H30.5825M30.5825 8.58676V5.75098M30.5825 17.2046V19.8792" stroke="#258F41" stroke-width="3"/>
<mask id="path-10-inside-3_606_421" fill="white">
<path d="M19.4043 12.6992H20.2129C22.709 12.6992 24.7324 14.7227 24.7324 17.2188C24.7324 19.7148 22.709 21.7383 20.2129 21.7383H19.4043V12.6992Z"/>
</mask>
<path d="M19.4043 12.6992H20.2129C22.709 12.6992 24.7324 14.7227 24.7324 17.2188C24.7324 19.7148 22.709 21.7383 20.2129 21.7383H19.4043V12.6992Z" fill="white"/>
<path d="M19.4043 9.69922H20.2129C24.3658 9.69922 27.7324 13.0658 27.7324 17.2188H21.7324C21.7324 16.3795 21.0521 15.6992 20.2129 15.6992H19.4043V9.69922ZM27.7324 17.2188C27.7324 21.3717 24.3658 24.7383 20.2129 24.7383H19.4043V18.7383H20.2129C21.0521 18.7383 21.7324 18.058 21.7324 17.2188H27.7324ZM19.4043 21.7383V12.6992V21.7383ZM20.2129 9.69922C24.3658 9.69922 27.7324 13.0658 27.7324 17.2188C27.7324 21.3717 24.3658 24.7383 20.2129 24.7383V18.7383C21.0521 18.7383 21.7324 18.058 21.7324 17.2188C21.7324 16.3795 21.0521 15.6992 20.2129 15.6992V9.69922Z" fill="#25398F" mask="url(#path-10-inside-3_606_421)"/>
</svg>
