<svg width="14" height="12" viewBox="0 0 14 12" fill="none" xmlns="http://www.w3.org/2000/svg">
<path fill-rule="evenodd" clip-rule="evenodd" d="M6.00098 10.251C6.00098 10.0521 6.03946 9.8613 6.10795 9.72065C6.17645 9.57999 6.26934 9.50098 6.36621 9.50098H12.9404C13.0373 9.50098 13.1302 9.57999 13.1987 9.72065C13.2672 9.8613 13.3057 10.0521 13.3057 10.251C13.3057 10.4499 13.2672 10.6407 13.1987 10.7813C13.1302 10.922 13.0373 11.001 12.9404 11.001H6.36621C6.26934 11.001 6.17645 10.922 6.10795 10.7813C6.03946 10.6407 6.00098 10.4499 6.00098 10.251ZM6.00098 6.25098C6.00098 6.05206 6.03946 5.8613 6.10795 5.72065C6.17645 5.57999 6.26934 5.50098 6.36621 5.50098H12.9404C13.0373 5.50098 13.1302 5.57999 13.1987 5.72065C13.2672 5.8613 13.3057 6.05206 13.3057 6.25098C13.3057 6.44989 13.2672 6.64065 13.1987 6.78131C13.1302 6.92196 13.0373 7.00098 12.9404 7.00098H6.36621C6.26934 7.00098 6.17645 6.92196 6.10795 6.78131C6.03946 6.64065 6.00098 6.44989 6.00098 6.25098ZM6.00098 2.25098C6.00098 2.05206 6.03946 1.8613 6.10795 1.72065C6.17645 1.57999 6.26934 1.50098 6.36621 1.50098H12.9404C13.0373 1.50098 13.1302 1.57999 13.1987 1.72065C13.2672 1.8613 13.3057 2.05206 13.3057 2.25098C13.3057 2.44989 13.2672 2.64065 13.1987 2.78131C13.1302 2.92196 13.0373 3.00098 12.9404 3.00098H6.36621C6.26934 3.00098 6.17645 2.92196 6.10795 2.78131C6.03946 2.64065 6.00098 2.44989 6.00098 2.25098Z" fill="#233C8E"/>
<path d="M4.44502 0.46389C4.40721 0.372772 4.35179 0.290009 4.28195 0.220341C4.21228 0.150496 4.12952 0.0950816 4.0384 0.057272C3.94728 0.0194623 3.8496 0 3.75095 0C3.6523 0 3.55461 0.0194623 3.4635 0.057272C3.37238 0.0950816 3.28962 0.150496 3.21995 0.220341L1.50095 1.94084L1.28195 1.72034C1.21222 1.65061 1.12943 1.59529 1.03832 1.55756C0.947213 1.51982 0.849563 1.50039 0.750947 1.50039C0.652332 1.50039 0.554681 1.51982 0.463572 1.55756C0.372463 1.59529 0.289679 1.65061 0.219947 1.72034C0.150216 1.79007 0.0949011 1.87286 0.0571624 1.96397C0.0194238 2.05507 0 2.15272 0 2.25134C0 2.34996 0.0194238 2.44761 0.0571624 2.53872C0.0949011 2.62982 0.150216 2.71261 0.219947 2.78234L0.969947 3.53234C1.03962 3.60219 1.12238 3.6576 1.2135 3.69541C1.30461 3.73322 1.4023 3.75268 1.50095 3.75268C1.5996 3.75268 1.69728 3.73322 1.7884 3.69541C1.87952 3.6576 1.96228 3.60219 2.03195 3.53234L4.28195 1.28234C4.35179 1.21267 4.40721 1.12991 4.44502 1.03879C4.48283 0.947673 4.50229 0.849992 4.50229 0.751341C4.50229 0.65269 4.48283 0.555008 4.44502 0.46389Z" fill="#258F41"/>
<path d="M4.44502 4.46389C4.40721 4.37277 4.35179 4.29001 4.28195 4.22034C4.21228 4.1505 4.12952 4.09508 4.0384 4.05727C3.94728 4.01946 3.8496 4 3.75095 4C3.6523 4 3.55461 4.01946 3.4635 4.05727C3.37238 4.09508 3.28962 4.1505 3.21995 4.22034L1.50095 5.94084L1.28195 5.72034C1.14112 5.57951 0.950111 5.50039 0.750947 5.50039C0.551784 5.50039 0.360777 5.57951 0.219947 5.72034C0.0791175 5.86117 0 6.05218 0 6.25134C0 6.4505 0.0791175 6.64151 0.219947 6.78234L0.969947 7.53234C1.03962 7.60219 1.12238 7.6576 1.2135 7.69541C1.30461 7.73322 1.4023 7.75268 1.50095 7.75268C1.5996 7.75268 1.69728 7.73322 1.7884 7.69541C1.87952 7.6576 1.96228 7.60219 2.03195 7.53234L4.28195 5.28234C4.35179 5.21267 4.40721 5.12991 4.44502 5.03879C4.48283 4.94767 4.50229 4.84999 4.50229 4.75134C4.50229 4.65269 4.48283 4.55501 4.44502 4.46389Z" fill="#258F41"/>
<path d="M4.44502 8.46389C4.40721 8.37277 4.35179 8.29001 4.28195 8.22034C4.21228 8.1505 4.12952 8.09508 4.0384 8.05727C3.94728 8.01946 3.8496 8 3.75095 8C3.6523 8 3.55461 8.01946 3.4635 8.05727C3.37238 8.09508 3.28962 8.1505 3.21995 8.22034L1.50095 9.94084L1.28195 9.72034C1.14112 9.57951 0.950111 9.50039 0.750947 9.50039C0.551784 9.50039 0.360777 9.57951 0.219947 9.72034C0.0791175 9.86117 0 10.0522 0 10.2513C0 10.4505 0.0791175 10.6415 0.219947 10.7823L0.969947 11.5323C1.03962 11.6022 1.12238 11.6576 1.2135 11.6954C1.30461 11.7332 1.4023 11.7527 1.50095 11.7527C1.5996 11.7527 1.69728 11.7332 1.7884 11.6954C1.87952 11.6576 1.96228 11.6022 2.03195 11.5323L4.28195 9.28234C4.35179 9.21267 4.40721 9.12991 4.44502 9.03879C4.48283 8.94767 4.50229 8.84999 4.50229 8.75134C4.50229 8.65269 4.48283 8.55501 4.44502 8.46389Z" fill="#258F41"/>
</svg>
